<?xml version="1.0" encoding="utf-8"?>
<!-- Generator: Adobe Illustrator 18.0.0, SVG Export Plug-In . SVG Version: 6.00 Build 0)  -->
<!DOCTYPE svg PUBLIC "-//W3C//DTD SVG 1.1//EN" "http://www.w3.org/Graphics/SVG/1.1/DTD/svg11.dtd">
<svg version="1.1" id="Слой_1" xmlns="http://www.w3.org/2000/svg" xmlns:xlink="http://www.w3.org/1999/xlink" x="0px" y="0px"
	 width="48.5px" height="48.5px" viewBox="0 0 48.5 48.5" enable-background="new 0 0 48.5 48.5" xml:space="preserve">
<path fill-rule="evenodd" clip-rule="evenodd" fill="#F2D03B" d="M24.3,48.5C10.9,48.5,0,37.6,0,24.2C0,10.9,10.9,0,24.3,0
	c13.4,0,24.3,10.9,24.3,24.2C48.5,37.6,37.7,48.5,24.3,48.5z M24.3,4.5c-10.9,0-19.7,8.8-19.7,19.7c0,5.1,1.9,9.7,5.1,13.2
	c2.9-1.4,1.8-0.2,5.5-1.8c3.8-1.6,4.7-2.1,4.7-2.1l0-3.6c0,0-1.4-1.1-1.9-4.5c-0.9,0.3-1.2-1-1.2-1.9c0-0.8-0.5-3.3,0.6-3.1
	c-0.2-1.7-0.4-3.2-0.3-4c0.3-2.8,3-5.7,7.2-5.9c4.9,0.2,6.9,3.1,7.1,5.9c0.1,0.8-0.1,2.3-0.3,4c1.1-0.2,0.6,2.3,0.6,3.1
	c0,0.8-0.4,2.1-1.2,1.9c-0.4,3.4-1.9,4.5-1.9,4.5l0,3.6c0,0,0.9,0.5,4.7,2.1c3.7,1.5,2.7,0.5,5.5,1.8C42,33.9,44,29.3,44,24.2
	C44,13.4,35.1,4.5,24.3,4.5z"/>
</svg>
