<?xml version="1.0" encoding="utf-8"?>
<!-- Generator: Adobe Illustrator 16.0.0, SVG Export Plug-In . SVG Version: 6.00 Build 0)  -->
<!DOCTYPE svg PUBLIC "-//W3C//DTD SVG 1.1//EN" "http://www.w3.org/Graphics/SVG/1.1/DTD/svg11.dtd">
<svg version="1.1" id="Слой_1" xmlns="http://www.w3.org/2000/svg" xmlns:xlink="http://www.w3.org/1999/xlink" x="0px" y="0px"
	 width="74.8px" height="74.5px" viewBox="0 0 74.8 74.5" enable-background="new 0 0 74.8 74.5" xml:space="preserve">
<g>
	<path d="M40.9,36.3l8.301-8.2c0.799-0.7,0.799-1.9,0-2.7c-0.801-0.7-2-0.7-2.801,0c0,0-4,3.9-8.3,8.1c-3.1-3.1-5.9-5.9-6.9-6.9
		c-2.9-2.8-4.1-1.3-4.1-1.3c-0.7,0.8-0.7,2,0,2.7l0.1,0.1l8.1,8.2C32.1,39.5,29.1,42.4,28,43.4c-2.9,2.8-1.3,4.1-1.3,4.1
		c0.8,0.7,2,0.7,2.8,0l0.1-0.1l8.5-8.301l8.399,8.5c0.701,0.801,2,0.801,2.701,0c0.699-0.8,0.699-2,0-2.699
		C49.3,44.7,45.3,40.6,40.9,36.3z M37.4,0C16.7,0,0,16.7,0,37.3C0,57.9,16.7,74.6,37.4,74.6c20.7,0,37.4-16.699,37.4-37.3
		C74.8,16.7,58,0,37.4,0z M37.4,70.8c-18.5,0-33.6-15.1-33.6-33.5c0-18.5,15.1-33.5,33.6-33.5S71,18.8,71,37.3
		C71,55.7,55.9,70.8,37.4,70.8z"/>
</g>
</svg>
