<?xml version="1.0" encoding="utf-8"?>
<!-- Generator: Adobe Illustrator 16.0.0, SVG Export Plug-In . SVG Version: 6.00 Build 0)  -->
<!DOCTYPE svg PUBLIC "-//W3C//DTD SVG 1.1//EN" "http://www.w3.org/Graphics/SVG/1.1/DTD/svg11.dtd">
<svg version="1.1" id="Слой_1" xmlns="http://www.w3.org/2000/svg" xmlns:xlink="http://www.w3.org/1999/xlink" x="0px" y="0px"
	 width="122.3px" height="71.9px" viewBox="0 0 122.3 71.9" enable-background="new 0 0 122.3 71.9" xml:space="preserve">
<g>
	<g>
		<path fill="#FFFFFF" d="M108,38.2c0.201-1.1,0.201-2.2,0.201-3.2c0-12.3-9.601-22.3-21.301-22.3c-5.8,0-11.1,2.4-15,6.5
			C69.4,13,63.5,8.6,56.5,8.6C49,8.6,42.6,13.7,40.6,20.8c-0.9-0.5-1.9-0.8-2.9-0.899c0.1-0.601,0.1-1.101,0.1-1.7
			c0-6.4-4.9-11.6-11-11.6C21.9,6.6,17.6,10,16.2,14.8c-0.8-0.3-1.6-0.5-2.4-0.5c-3.4,0-6.1,2.9-6.1,6.4c0,0.1,0,0.2,0,0.3
			C3.4,21,0,24.6,0,29.1c0,4.1,3,7.6,6.7,8v0.1h30h0.8l0,0c1.9-0.2,3.6-1.1,5-2.4c1.6,2.601,3.9,4.7,6.5,6
			C41.3,41.3,35.2,48.1,35.2,56.4c0,8,5.7,14.6,13,15.5V72h58h1.5v-0.1c8.1-0.8,14.5-8.101,14.5-16.8C122.3,46.3,116,39.2,108,38.2z
			 M71.201,25.5C71.201,33.8,64.6,40.6,56.4,40.6c-1.3,0-2.5-0.2-3.6-0.5c0-0.101,0-0.101,0-0.2c0-5.101,4-9.3,8.901-9.3
			c1.699,0,3.399,0.5,4.899,1.5l1.899,1.3l0.4-2.3c0.4-2.2,1.2-4.301,2.301-6.2C71.201,25.2,71.201,25.3,71.201,25.5z M36.7,35.5
			H7.8H7.5c-3.3,0-6-2.899-6-6.5c0-3.6,2.7-6.5,6-6.5c0.2,0,0.5,0,0.8,0.101L9.4,22.8l-0.2-1.1c-0.1-0.4-0.1-0.7-0.1-1.1
			c0-2.7,2.1-4.801,4.6-4.801c0.9,0,1.8,0.301,2.5,0.801l1,0.699l0.2-1.199c0.9-4.601,4.8-8,9.3-8c5.2,0,9.5,4.5,9.5,10
			c0,0.699-0.1,1.5-0.3,2.3l-0.2,1h1c1.3,0,2.5,0.399,3.5,1c-0.2,1-0.3,2.1-0.3,3.2c0,2.8,0.7,5.399,1.8,7.699
			C40.4,34.6,38.7,35.5,36.7,35.5z M42.8,31.3c-0.7-1.8-1.1-3.699-1.1-5.8c0-0.6,0-1.2,0.1-1.7c1,1.2,1.6,2.9,1.6,4.601
			C43.4,29.4,43.2,30.4,42.8,31.3z M43.7,33.1c0.8-1.4,1.3-3,1.3-4.7c0-2.601-1.1-5-2.8-6.601c1.6-6.6,7.4-11.5,14.3-11.5
			c6.5,0,12,4.301,14,10.301c-1.799,2.3-3.199,4.899-4,7.8c-1.5-0.7-3.1-1-4.699-1c-6.3,0-11.4,5.1-11.9,11.5
			C47.3,37.7,45.1,35.6,43.7,33.1z M106.201,68.7h-56h-0.5c-6.4-0.1-11.5-5.7-11.5-12.5c0-6.9,5.2-12.5,11.6-12.5
			c0.4,0,0.9,0,1.5,0.1l2.2,0.301l-0.4-2c1.1,0.199,2.2,0.399,3.4,0.399c9.201,0,16.6-7.6,16.6-17c0-1-0.101-1.899-0.2-2.8
			c3.4-4.2,8.5-6.9,14-6.9c10.1,0,18.301,8.601,18.301,19.2c0,1.4-0.201,2.9-0.5,4.3l-0.4,1.9h1.9c7.199,0,13.1,6.2,13.1,13.7
			C119.201,62.5,113.4,68.7,106.201,68.7z M56.5,5.7c0.5,0,0.9-0.4,0.9-0.9V0.9C57.4,0.4,57,0,56.5,0s-0.9,0.4-0.9,0.9v3.8
			C55.6,5.2,56,5.7,56.5,5.7z M71.9,11.1L74.1,8.8c0.399-0.399,0.399-1,0-1.3c-0.399-0.399-0.899-0.399-1.3,0l-2.2,2.3
			c-0.399,0.4-0.399,1,0,1.301C70.9,11.5,71.5,11.5,71.9,11.1z M41.1,11.1c0.4,0.399,0.9,0.399,1.3,0c0.4-0.4,0.4-1,0-1.301
			l-2.2-2.3c-0.4-0.399-0.9-0.399-1.3,0c-0.4,0.4-0.4,1,0,1.3L41.1,11.1z M80.5,24.6H76.8c-0.5,0-0.9,0.399-0.9,0.899
			s0.4,0.9,0.9,0.9H80.5c0.5,0,0.9-0.4,0.9-0.9S81,24.6,80.5,24.6z M71.9,39.9c-0.4-0.4-0.9-0.4-1.3,0c-0.399,0.399-0.399,1,0,1.3
			l2.2,2.3c0.4,0.4,0.9,0.4,1.3,0c0.399-0.399,0.399-1,0-1.3L71.9,39.9z M36.2,24.6h-3.7C32,24.6,31.6,25,31.6,25.5s0.4,0.9,0.9,0.9
			h3.7c0.5,0,0.9-0.4,0.9-0.9S36.7,24.6,36.2,24.6z M40.2,43.5l2.2-2.3c0.4-0.4,0.4-1,0-1.3c-0.4-0.4-0.9-0.4-1.3,0l-2.2,2.3
			c-0.4,0.4-0.4,1,0,1.3C39.2,43.9,39.8,43.9,40.2,43.5z M56.5,45.3c-0.5,0-0.9,0.4-0.9,0.9V50c0,0.5,0.4,0.9,0.9,0.9
			s0.9-0.4,0.9-0.9v-3.8C57.4,45.8,57,45.3,56.5,45.3z"/>
	</g>
</g>
</svg>
