<?xml version="1.0" encoding="utf-8"?>
<!-- Generator: Adobe Illustrator 18.0.0, SVG Export Plug-In . SVG Version: 6.00 Build 0)  -->
<!DOCTYPE svg PUBLIC "-//W3C//DTD SVG 1.1//EN" "http://www.w3.org/Graphics/SVG/1.1/DTD/svg11.dtd">
<svg version="1.1" id="Слой_1" xmlns="http://www.w3.org/2000/svg" xmlns:xlink="http://www.w3.org/1999/xlink" x="0px" y="0px"
	 width="33px" height="33px" viewBox="0 0 33 33" enable-background="new 0 0 33 33" xml:space="preserve">
<path fill-rule="evenodd" clip-rule="evenodd" fill="#FFFFFF" d="M16.5,33C7.4,33,0,25.6,0,16.5C0,7.4,7.4,0,16.5,0S33,7.4,33,16.5
	C33,25.6,25.6,33,16.5,33z M16.5,1.7C8.3,1.7,1.7,8.3,1.7,16.5c0,8.2,6.7,14.9,14.8,14.9c8.2,0,14.8-6.7,14.8-14.9
	C31.3,8.3,24.7,1.7,16.5,1.7z M15.7,17.4H6.8l16.5-7.6l-7.6,16.5V17.4z"/>
</svg>
