<?xml version="1.0" encoding="utf-8"?>
<!-- Generator: Adobe Illustrator 18.0.0, SVG Export Plug-In . SVG Version: 6.00 Build 0)  -->
<!DOCTYPE svg PUBLIC "-//W3C//DTD SVG 1.1//EN" "http://www.w3.org/Graphics/SVG/1.1/DTD/svg11.dtd">
<svg version="1.1" id="Слой_1" xmlns="http://www.w3.org/2000/svg" xmlns:xlink="http://www.w3.org/1999/xlink" x="0px" y="0px"
	 width="95.1px" height="67.9px" viewBox="0 0 95.1 67.9" enable-background="new 0 0 95.1 67.9" xml:space="preserve">
<path fill-rule="evenodd" clip-rule="evenodd" fill="#FFFFFF" d="M95.1,64.9C95.1,64.9,95.1,64.9,95.1,64.9c0,1.7-1.3,3-3,3H70.1
	c1.7-0.4,2.9-1.9,2.9-3.6c0,0,0,0,0,0h0c0,0,0-13.6-9.8-18.5c-4.2-2.1-4.5-1.7-6.6-2.2l0.1-5.9c0,0-2.3-1.8-3-7.3
	c-1.4,0.4-1.9-1.7-2-3c-0.1-1.3-0.8-5.4,0.9-5c-0.4-2.7-0.6-5.2-0.5-6.5c0.4-4.6,4.8-9.3,11.5-9.7c7.9,0.3,11,5.1,11.4,9.7
	c0.1,1.3-0.2,3.8-0.5,6.5c1.8-0.4,1,3.7,0.9,5c-0.1,1.3-0.6,3.5-2,3c-0.7,5.6-3,7.3-3,7.3l0.1,5.9c0,0,1.4,0.8,7.6,3.4
	c6.1,2.6,4.2,0.6,9.2,3.2C95.1,54,95.1,64.9,95.1,64.9L95.1,64.9z M50.7,44.8c6.7,2.8,4.6,0.7,10.1,3.5c8.7,4.3,8.7,16.3,8.7,16.3h0
	c0,0,0,0,0,0c0,1.8-1.5,3.3-3.3,3.3H3.3c-1.8,0-3.3-1.5-3.3-3.3c0,0,0,0,0,0h0c0,0,0-12,8.7-16.3c5.5-2.8,3.4-0.5,10.1-3.3
	c6.7-2.8,8.3-3.8,8.3-3.8l0.1-6.5c0,0-2.5-1.9-3.3-8c-1.6,0.5-2.1-1.9-2.2-3.4c-0.1-1.4-0.9-5.9,1-5.5c-0.4-3-0.7-5.7-0.5-7.1
	c0.5-5,5.3-10.2,12.6-10.6c8.7,0.4,12.1,5.6,12.6,10.6c0.1,1.4-0.2,4.1-0.6,7.1c1.9-0.4,1.1,4.1,1,5.5c-0.1,1.5-0.6,3.8-2.2,3.3
	c-0.8,6.1-3.3,8-3.3,8l0.1,6.5C42.3,41.1,43.9,42,50.7,44.8z"/>
</svg>
