<?xml version="1.0" encoding="utf-8"?>
<!-- Generator: Adobe Illustrator 18.0.0, SVG Export Plug-In . SVG Version: 6.00 Build 0)  -->
<!DOCTYPE svg PUBLIC "-//W3C//DTD SVG 1.1//EN" "http://www.w3.org/Graphics/SVG/1.1/DTD/svg11.dtd">
<svg version="1.1" id="Слой_1" xmlns="http://www.w3.org/2000/svg" xmlns:xlink="http://www.w3.org/1999/xlink" x="0px" y="0px"
	 width="14.6px" height="14.6px" viewBox="0 0 14.6 14.6" enable-background="new 0 0 14.6 14.6" xml:space="preserve">
<path fill-rule="evenodd" clip-rule="evenodd" fill="#FFFFFF" d="M14.6,13.9l-4.2-4.2c0.8-1,1.4-2.3,1.4-3.8C11.8,2.6,9.1,0,5.9,0
	C2.6,0,0,2.6,0,5.9c0,3.3,2.6,5.9,5.9,5.9c1.4,0,2.7-0.5,3.8-1.4l4.2,4.2L14.6,13.9z M0.6,5.9C0.6,3,3,0.6,5.9,0.6
	c2.9,0,5.3,2.4,5.3,5.3s-2.4,5.3-5.3,5.3C3,11.2,0.6,8.8,0.6,5.9z"/>
</svg>
