<?xml version="1.0" encoding="utf-8"?>
<!-- Generator: Adobe Illustrator 18.0.0, SVG Export Plug-In . SVG Version: 6.00 Build 0)  -->
<!DOCTYPE svg PUBLIC "-//W3C//DTD SVG 1.1//EN" "http://www.w3.org/Graphics/SVG/1.1/DTD/svg11.dtd">
<svg version="1.1" id="Слой_1" xmlns="http://www.w3.org/2000/svg" xmlns:xlink="http://www.w3.org/1999/xlink" x="0px" y="0px"
	 width="52.4px" height="50.4px" viewBox="0 0 52.4 50.4" enable-background="new 0 0 52.4 50.4" xml:space="preserve">
<path fill-rule="evenodd" clip-rule="evenodd" fill="#F2D03B" d="M52.4,48C52.4,48,52.4,48,52.4,48c0,1.4-1.1,2.4-2.5,2.4H2.5
	C1.1,50.4,0,49.3,0,48c0,0,0,0,0,0h0c0,0,0-8.9,6.5-12.1c4.1-2,2.5-0.4,7.6-2.5c5.1-2.1,6.3-2.8,6.3-2.8l0-4.8c0,0-1.9-1.4-2.5-6
	c-1.2,0.3-1.6-1.4-1.7-2.5c-0.1-1.1-0.7-4.4,0.8-4.1C16.8,11,16.6,9,16.7,7.9c0.4-3.7,4-7.6,9.5-7.9c6.5,0.3,9.1,4.2,9.5,7.9
	c0.1,1.1-0.1,3.1-0.4,5.3c1.5-0.3,0.8,3,0.8,4.1c-0.1,1.1-0.5,2.8-1.7,2.5c-0.6,4.5-2.5,6-2.5,6l0,4.8c0,0,1.2,0.7,6.3,2.8
	c5.1,2.1,3.5,0.5,7.6,2.6C52.4,39.1,52.4,48,52.4,48L52.4,48z"/>
</svg>
