<?xml version="1.0" encoding="utf-8"?>
<!-- Generator: Adobe Illustrator 16.0.0, SVG Export Plug-In . SVG Version: 6.00 Build 0)  -->
<!DOCTYPE svg PUBLIC "-//W3C//DTD SVG 1.1//EN" "http://www.w3.org/Graphics/SVG/1.1/DTD/svg11.dtd">
<svg version="1.1" id="Слой_1" xmlns="http://www.w3.org/2000/svg" xmlns:xlink="http://www.w3.org/1999/xlink" x="0px" y="0px"
	 width="74.8px" height="74.5px" viewBox="0 0 74.8 74.5" enable-background="new 0 0 74.8 74.5" xml:space="preserve">
<g>
	<path d="M27.5,42.8l4.4,4.4L45,34L40.6,29.6L27.5,42.8z M24.9,49.7l5.8-1.5l-4.4-4.4L24.9,49.7z M47.201,25.3
		C46.6,24.7,45.6,24.7,45,25.3l-3.299,3.3L46.1,33l3.3-3.3c0.6-0.6,0.6-1.6,0-2.2L47.201,25.3z M37.4,0C16.7,0,0,16.7,0,37.3
		C0,57.9,16.7,74.6,37.4,74.6c20.7,0,37.4-16.699,37.4-37.3C74.8,16.7,58,0,37.4,0z M37.4,70.8c-18.5,0-33.6-15.1-33.6-33.5
		c0-18.5,15.1-33.5,33.6-33.5S71,18.8,71,37.3C71,55.7,55.9,70.8,37.4,70.8z"/>
</g>
</svg>
