<?xml version="1.0" encoding="utf-8"?>
<!-- Generator: Adobe Illustrator 18.0.0, SVG Export Plug-In . SVG Version: 6.00 Build 0)  -->
<!DOCTYPE svg PUBLIC "-//W3C//DTD SVG 1.1//EN" "http://www.w3.org/Graphics/SVG/1.1/DTD/svg11.dtd">
<svg version="1.1" id="Слой_1" xmlns="http://www.w3.org/2000/svg" xmlns:xlink="http://www.w3.org/1999/xlink" x="0px" y="0px"
	 width="90.7px" height="71.9px" viewBox="0 0 90.7 71.9" enable-background="new 0 0 90.7 71.9" xml:space="preserve">
<g>
	<g>
		<path fill-rule="evenodd" clip-rule="evenodd" fill="#FF6060" d="M76.4,38.2c0.2-1.1,0.2-2.2,0.2-3.2c0-12.3-9.6-22.3-21.3-22.3
			c-5.8,0-11.1,2.4-15,6.5c-2.5-6.2-8.4-10.6-15.4-10.6c-9.2,0-16.6,7.6-16.6,17c0,6.6,3.7,12.4,9.2,15.2
			C9.8,41.1,3.6,47.9,3.6,56.2c0,8,5.7,14.6,13,15.5v0.1h58l1.5,0v-0.1c8.1-0.8,14.5-8.1,14.5-16.8C90.7,46.3,84.4,39.2,76.4,38.2z
			 M39.7,25.5c0,8.3-6.6,15.1-14.8,15.1c-1.3,0-2.5-0.2-3.6-0.5c0-0.1,0-0.1,0-0.2c0-5.1,4-9.3,8.9-9.3c1.7,0,3.4,0.5,4.9,1.5
			l1.9,1.3l0.4-2.3c0.4-2.2,1.2-4.3,2.3-6.2C39.7,25.2,39.7,25.3,39.7,25.5z M10.2,25.5c0-8.3,6.6-15.1,14.8-15.1
			c6.5,0,12,4.3,14,10.3c-1.8,2.3-3.2,4.9-4,7.8c-1.5-0.7-3.1-1-4.7-1c-6.3,0-11.4,5.1-11.9,11.5C13.5,36.5,10.2,31.4,10.2,25.5z
			 M74.7,68.7l-56,0l-0.5,0c-6.4-0.1-11.5-5.7-11.5-12.5c0-6.9,5.2-12.5,11.6-12.5c0.4,0,0.9,0,1.5,0.1l2.2,0.3l-0.4-2
			c1.1,0.2,2.2,0.4,3.4,0.4c9.2,0,16.6-7.6,16.6-17c0-1-0.1-1.9-0.2-2.8c3.4-4.2,8.5-6.9,14-6.9c10.1,0,18.3,8.6,18.3,19.2
			c0,1.4-0.2,2.9-0.5,4.3l-0.4,1.9h1.9c7.2,0,13.1,6.2,13.1,13.7C87.7,62.5,81.9,68.7,74.7,68.7z M24.9,5.7c0.5,0,0.9-0.4,0.9-0.9
			V0.9c0-0.5-0.4-0.9-0.9-0.9C24.4,0,24,0.4,24,0.9v3.8C24,5.2,24.4,5.7,24.9,5.7z M9.5,11.1c0.4,0.4,0.9,0.4,1.3,0
			c0.4-0.4,0.4-1,0-1.3L8.6,7.5c-0.4-0.4-0.9-0.4-1.3,0c-0.4,0.4-0.4,1,0,1.3L9.5,11.1z M40.3,11.1l2.2-2.3c0.4-0.4,0.4-1,0-1.3
			c-0.4-0.4-0.9-0.4-1.3,0L39,9.8c-0.4,0.4-0.4,1,0,1.3C39.4,11.5,40,11.5,40.3,11.1z M8.6,43.5l2.2-2.3c0.4-0.4,0.4-1,0-1.3
			c-0.4-0.4-0.9-0.4-1.3,0l-2.2,2.3c-0.4,0.4-0.4,1,0,1.3C7.7,43.9,8.2,43.9,8.6,43.5z M48.9,24.6h-3.7c-0.5,0-0.9,0.4-0.9,0.9
			c0,0.5,0.4,0.9,0.9,0.9h3.7c0.5,0,0.9-0.4,0.9-0.9C49.9,25,49.4,24.6,48.9,24.6z M40.3,39.9c-0.4-0.4-0.9-0.4-1.3,0
			c-0.4,0.4-0.4,1,0,1.3l2.2,2.3c0.4,0.4,0.9,0.4,1.3,0c0.4-0.4,0.4-1,0-1.3L40.3,39.9z M5.5,25.5c0-0.5-0.4-0.9-0.9-0.9H0.9
			C0.4,24.6,0,25,0,25.5c0,0.5,0.4,0.9,0.9,0.9h3.7C5.1,26.5,5.5,26,5.5,25.5z M24.9,45.3c-0.5,0-0.9,0.4-0.9,0.9v3.8
			c0,0.5,0.4,0.9,0.9,0.9c0.5,0,0.9-0.4,0.9-0.9v-3.8C25.9,45.8,25.4,45.3,24.9,45.3z"/>
	</g>
</g>
</svg>
