<?xml version="1.0" encoding="utf-8"?>
<!-- Generator: Adobe Illustrator 18.0.0, SVG Export Plug-In . SVG Version: 6.00 Build 0)  -->
<!DOCTYPE svg PUBLIC "-//W3C//DTD SVG 1.1//EN" "http://www.w3.org/Graphics/SVG/1.1/DTD/svg11.dtd">
<svg version="1.1" id="Слой_1" xmlns="http://www.w3.org/2000/svg" xmlns:xlink="http://www.w3.org/1999/xlink" x="0px" y="0px"
	 width="56.3px" height="38.8px" viewBox="0 0 56.3 38.8" enable-background="new 0 0 56.3 38.8" xml:space="preserve">
<path fill-rule="evenodd" clip-rule="evenodd" fill="#F2D03B" d="M38.4,17.4L55.5,0.8c0.5,0.5,0.8,1.1,0.8,1.9v33.5
	c0,0.7-0.3,1.3-0.7,1.8L38.4,17.4z M0.9,0.7C1.3,0.3,2,0,2.6,0h51c0.7,0,1.3,0.3,1.8,0.7L28.1,22L0.9,0.7z M0.7,37.9
	C0.3,37.5,0,36.8,0,36.1V2.6c0-0.7,0.3-1.4,0.8-1.9l17.1,16.6L0.7,37.9z M28.1,27.3l7.2-6.9l20.2,17.7c-0.5,0.4-1.1,0.7-1.8,0.7h-51
	c-0.7,0-1.3-0.3-1.8-0.7L21,20.4L28.1,27.3z"/>
</svg>
