<?xml version="1.0" encoding="utf-8"?>
<!-- Generator: Adobe Illustrator 16.0.0, SVG Export Plug-In . SVG Version: 6.00 Build 0)  -->
<!DOCTYPE svg PUBLIC "-//W3C//DTD SVG 1.1//EN" "http://www.w3.org/Graphics/SVG/1.1/DTD/svg11.dtd">
<svg version="1.1" id="Слой_1" xmlns="http://www.w3.org/2000/svg" xmlns:xlink="http://www.w3.org/1999/xlink" x="0px" y="0px"
	 width="74.8px" height="74.5px" viewBox="0 0 74.8 74.5" enable-background="new 0 0 74.8 74.5" xml:space="preserve">
<g>
	<path d="M49.8,25.4l-18.3,18l-8.2-8c-0.8-0.7-2-0.7-2.8,0c-0.8,0.7-0.8,1.9,0,2.7l9.7,9.4c0.8,0.7,2,0.7,2.8,0l0.1-0.1l19.601-19.2
		c0.799-0.7,0.799-1.9,0-2.7C51.8,24.7,50.6,24.7,49.8,25.4z M37.4,0C16.7,0,0,16.7,0,37.3C0,57.9,16.7,74.6,37.4,74.6
		c20.7,0,37.4-16.699,37.4-37.3C74.8,16.7,58,0,37.4,0z M37.4,70.8c-18.5,0-33.6-15.1-33.6-33.5c0-18.5,15.1-33.5,33.6-33.5
		S71,18.8,71,37.3C71,55.7,55.9,70.8,37.4,70.8z"/>
</g>
</svg>
