<?xml version="1.0" encoding="utf-8"?>
<!-- Generator: Adobe Illustrator 18.0.0, SVG Export Plug-In . SVG Version: 6.00 Build 0)  -->
<!DOCTYPE svg PUBLIC "-//W3C//DTD SVG 1.1//EN" "http://www.w3.org/Graphics/SVG/1.1/DTD/svg11.dtd">
<svg version="1.1" id="Слой_1" xmlns="http://www.w3.org/2000/svg" xmlns:xlink="http://www.w3.org/1999/xlink" x="0px" y="0px"
	 width="14px" height="17.5px" viewBox="0 0 14 17.5" enable-background="new 0 0 14 17.5" xml:space="preserve">
<g>
	<path fill-rule="evenodd" clip-rule="evenodd" fill="#FFFFFF" d="M13.2,17.5H0.8c-0.4,0-0.8-0.4-0.8-0.8V9.6c0-0.5,0.4-0.8,0.8-0.8
		h1.3V4.9C2.2,2.2,4.3,0,7,0c2.7,0,4.8,2.2,4.8,4.9v3.8h1.3c0.4,0,0.8,0.4,0.8,0.8v7.1C14,17.1,13.6,17.5,13.2,17.5z M6.2,13.4V15
		c0,0.5,0.4,0.8,0.8,0.8c0.4,0,0.8-0.4,0.8-0.8v-1.6c0.5-0.3,0.8-0.8,0.8-1.4c0-0.9-0.7-1.6-1.6-1.6c-0.9,0-1.6,0.7-1.6,1.6
		C5.4,12.6,5.7,13.2,6.2,13.4z M10.2,4.9c0-1.8-1.4-3.3-3.2-3.3c-1.8,0-3.2,1.5-3.2,3.3v3.8h6.5V4.9z"/>
</g>
</svg>
