<?xml version="1.0" encoding="utf-8"?>
<!-- Generator: Adobe Illustrator 18.0.0, SVG Export Plug-In . SVG Version: 6.00 Build 0)  -->
<!DOCTYPE svg PUBLIC "-//W3C//DTD SVG 1.1//EN" "http://www.w3.org/Graphics/SVG/1.1/DTD/svg11.dtd">
<svg version="1.1" id="Слой_1" xmlns="http://www.w3.org/2000/svg" xmlns:xlink="http://www.w3.org/1999/xlink" x="0px" y="0px"
	 width="100.9px" height="75.7px" viewBox="0 0 100.9 75.7" enable-background="new 0 0 100.9 75.7" xml:space="preserve">
<g>
	<g>
		<path fill-rule="evenodd" clip-rule="evenodd" fill="#FF6060" d="M61.2,3.5c0.3,0,0.6-0.3,0.6-0.6V0.6c0-0.3-0.3-0.6-0.6-0.6
			c-0.3,0-0.6,0.3-0.6,0.6v2.3C60.6,3.2,60.9,3.5,61.2,3.5z M71.1,24.7c-0.2-0.2-0.6-0.2-0.8,0c-0.2,0.2-0.2,0.6,0,0.8l1.4,1.4
			c0.2,0.2,0.6,0.2,0.8,0c0.2-0.2,0.2-0.6,0-0.8L71.1,24.7z M74.2,16.4h2.4c0.3,0,0.6-0.3,0.6-0.6c0-0.3-0.3-0.6-0.6-0.6h-2.4
			c-0.3,0-0.6,0.3-0.6,0.6C73.6,16.1,73.9,16.4,74.2,16.4z M71.1,6.9l1.4-1.4c0.2-0.2,0.2-0.6,0-0.8c-0.2-0.2-0.6-0.2-0.8,0L70.2,6
			c-0.2,0.2-0.2,0.6,0,0.8C70.5,7.1,70.9,7.1,71.1,6.9z M45.8,16.4h2.4c0.3,0,0.6-0.3,0.6-0.6c0-0.3-0.3-0.6-0.6-0.6h-2.4
			c-0.3,0-0.6,0.3-0.6,0.6C45.2,16.1,45.5,16.4,45.8,16.4z M61.2,26.3c5.9,0,10.7-4.7,10.7-10.5c0-5.8-4.8-10.5-10.7-10.5
			c-5.9,0-10.7,4.7-10.7,10.5C50.5,21.6,55.3,26.3,61.2,26.3z M61.2,6.4c5.2,0,9.5,4.2,9.5,9.4c0,5.2-4.2,9.4-9.5,9.4
			c-5.2,0-9.5-4.2-9.5-9.4C51.7,10.6,56,6.4,61.2,6.4z M50.7,27l1.4-1.4c0.2-0.2,0.2-0.6,0-0.8c-0.2-0.2-0.6-0.2-0.8,0l-1.4,1.4
			c-0.2,0.2-0.2,0.6,0,0.8C50.1,27.2,50.5,27.2,50.7,27z M51.3,6.9c0.2,0.2,0.6,0.2,0.8,0c0.2-0.2,0.2-0.6,0-0.8l-1.4-1.4
			c-0.2-0.2-0.6-0.2-0.8,0c-0.2,0.2-0.2,0.6,0,0.8L51.3,6.9z M60.6,28.7V31c0,0.3,0.3,0.6,0.6,0.6c0.3,0,0.6-0.3,0.6-0.6v-2.3
			c0-0.3-0.3-0.6-0.6-0.6C60.9,28.1,60.6,28.4,60.6,28.7z M91.7,44.3c0.1-0.7,0.2-1.3,0.2-2c0-7.6-6.1-13.8-13.7-13.8
			c-6.1,0-11.4,4.1-13.1,9.8c-1-0.4-2-0.6-3-0.6c-2.7,0-5.1,1.5-6.5,3.7c-1-4.3-4.5-7.5-8.9-8c0.1-0.7,0.2-1.3,0.2-2
			c0-7.6-6.1-13.8-13.7-13.8c-6.1,0-11.4,4.1-13.1,9.8c-1-0.4-2-0.6-3-0.6c-4.2,0-7.6,3.5-7.6,7.7c0,0.1,0,0.3,0,0.4
			c-5.2,0-9.4,4.3-9.4,9.7c0,5,3.7,9.1,8.4,9.6v0.1h12.8c-0.1,0.6-0.2,1.2-0.2,1.9c0,0.1,0,0.3,0,0.4c-5.2,0-9.4,4.3-9.4,9.7
			c0,5,3.7,9.1,8.4,9.6v0.1h37.2l1,0v-0.1c5.2-0.5,9.3-5,9.3-10.4c0-0.1,0-0.1,0-0.2h23.2l1,0V65c5.2-0.5,9.3-5,9.3-10.4
			C100.9,49.3,96.9,44.9,91.7,44.3z M55.3,47.8c0.7,1.6,1.2,3.3,1.2,5.2c0,0.9-0.1,1.8-0.3,2.7l-0.3,1.2h1.2c3.9,0,7.2,2.7,8.1,6.4
			l-10.4,0l-0.3,0c-4.1,0-7.4-3.5-7.4-7.7c0-0.5,0.1-1,0.1-1.5c3.6-0.6,6.5-3,7.9-6.2C55.1,47.7,55.2,47.7,55.3,47.8z M45.6,52.2
			C45.6,52.2,45.6,52.2,45.6,52.2l-21.3,0c1-1.2,2.6-2,4.3-2c1.1,0,2.2,0.3,3.1,1l1.2,0.8l0.3-1.4C34.3,45,39.1,41,44.7,41
			c3.6,0,6.9,1.7,9,4.3c0,0.2-0.1,0.3-0.1,0.5C49.9,46.1,46.8,48.7,45.6,52.2z M52.8,47.9c-1.1,1.9-2.8,3.3-4.9,3.9
			C48.9,49.9,50.7,48.4,52.8,47.9z M9.7,52.2l-0.3,0c-4.1,0-7.4-3.5-7.4-7.7c0-4.3,3.3-7.7,7.5-7.7c0.3,0,0.6,0,1,0.1l1.4,0.2
			l-0.3-1.3c-0.1-0.4-0.1-0.8-0.1-1.3c0-3.2,2.5-5.8,5.7-5.8c1.1,0,2.2,0.3,3.1,1l1.2,0.8l0.3-1.4c1.1-5.5,5.9-9.5,11.5-9.5
			c6.5,0,11.7,5.3,11.7,11.9c0,0.9-0.1,1.8-0.3,2.7l-0.3,1.2h1.2c4.3,0,7.8,3.3,8.3,7.5c-2.4-2.2-5.6-3.6-9.1-3.6
			c-6.1,0-11.4,4.1-13.1,9.8c-1-0.4-2-0.6-3-0.6c-2.8,0-5.3,1.6-6.6,3.9L9.7,52.2z M57.1,73.8l-35.9,0l-0.3,0
			c-4.1,0-7.4-3.5-7.4-7.7c0-4.3,3.3-7.7,7.5-7.7c0.3,0,0.6,0,1,0.1l1.4,0.2L23,57.2c-0.1-0.4-0.1-0.8-0.1-1.3
			c0-0.7,0.1-1.3,0.3-1.9h22c-0.1,0.4-0.1,0.9-0.1,1.3c0,5,3.7,9.1,8.4,9.6v0.1h12c0,0.1,0,0.1,0,0.2C65.5,69.9,61.7,73.8,57.1,73.8
			z M90.6,63.2l-23.5,0c-0.9-4.4-4.5-7.7-8.9-8.2c0.1-0.7,0.2-1.3,0.2-2c0-2.6-0.7-5-2-7.1c0-0.1,0-0.3,0-0.4c0-3.2,2.5-5.8,5.7-5.8
			c1.1,0,2.2,0.3,3.1,1l1.2,0.8l0.3-1.4c1.1-5.5,5.9-9.5,11.5-9.5c6.5,0,11.7,5.3,11.7,11.9c0,0.9-0.1,1.8-0.3,2.7l-0.3,1.2h1.2
			c4.6,0,8.4,3.8,8.4,8.5C99,59.3,95.2,63.1,90.6,63.2z"/>
	</g>
</g>
</svg>
