<?xml version="1.0" encoding="utf-8"?>
<!-- Generator: Adobe Illustrator 16.0.0, SVG Export Plug-In . SVG Version: 6.00 Build 0)  -->
<!DOCTYPE svg PUBLIC "-//W3C//DTD SVG 1.1//EN" "http://www.w3.org/Graphics/SVG/1.1/DTD/svg11.dtd">
<svg version="1.1" id="Слой_1" xmlns="http://www.w3.org/2000/svg" xmlns:xlink="http://www.w3.org/1999/xlink" x="0px" y="0px"
	 width="90.7px" height="71.9px" viewBox="0 0 90.7 71.9" enable-background="new 0 0 90.7 71.9" xml:space="preserve">
<g>
	<g>
		<path fill="#FFFFFF" d="M76.4,38.2c0.2-1.1,0.2-2.2,0.2-3.2c0-12.3-9.6-22.3-21.301-22.3c-5.799,0-11.099,2.4-15,6.5
			C37.8,13,31.9,8.6,24.9,8.6c-9.2,0-16.6,7.6-16.6,17C8.3,32.2,12,38,17.5,40.8C9.8,41.1,3.6,47.9,3.6,56.2c0,8,5.7,14.6,13,15.5
			v0.1h58h1.5v-0.1c8.1-0.8,14.5-8.1,14.5-16.8C90.7,46.3,84.4,39.2,76.4,38.2z M39.7,25.5c0,8.3-6.6,15.101-14.8,15.101
			c-1.3,0-2.5-0.2-3.6-0.5c0-0.101,0-0.101,0-0.2c0-5.101,4-9.3,8.9-9.3c1.7,0,3.4,0.5,4.9,1.5l1.9,1.3l0.4-2.3
			c0.4-2.2,1.2-4.301,2.3-6.2C39.7,25.2,39.7,25.3,39.7,25.5z M10.2,25.5c0-8.3,6.6-15.1,14.8-15.1c6.5,0,12,4.3,14,10.3
			c-1.8,2.3-3.2,4.9-4,7.8c-1.5-0.7-3.1-1-4.7-1C24,27.5,18.9,32.6,18.4,39C13.5,36.5,10.2,31.4,10.2,25.5z M74.7,68.7h-56h-0.5
			C11.8,68.6,6.7,63,6.7,56.2c0-6.9,5.2-12.5,11.6-12.5c0.4,0,0.9,0,1.5,0.1L22,44.1l-0.4-2C22.7,42.3,23.8,42.5,25,42.5
			c9.2,0,16.6-7.6,16.6-17c0-1-0.1-1.899-0.2-2.8c3.4-4.2,8.5-6.9,14-6.9C65.5,15.8,73.7,24.4,73.7,35c0,1.4-0.199,2.9-0.5,4.3
			l-0.4,1.9h1.9c7.2,0,13.1,6.2,13.1,13.7C87.7,62.5,81.9,68.7,74.7,68.7z M24.9,5.7c0.5,0,0.9-0.4,0.9-0.9V0.9
			c0-0.5-0.4-0.9-0.9-0.9S24,0.4,24,0.9v3.8C24,5.2,24.4,5.7,24.9,5.7z M9.5,11.1c0.4,0.399,0.9,0.399,1.3,0c0.4-0.4,0.4-1,0-1.301
			L8.6,7.5C8.2,7.1,7.7,7.1,7.3,7.5c-0.4,0.4-0.4,1,0,1.3L9.5,11.1z M40.3,11.1L42.5,8.8c0.4-0.399,0.4-1,0-1.3
			c-0.4-0.399-0.9-0.399-1.3,0L39,9.8c-0.4,0.4-0.4,1,0,1.301C39.4,11.5,40,11.5,40.3,11.1z M8.6,43.5l2.2-2.3c0.4-0.4,0.4-1,0-1.3
			c-0.4-0.4-0.9-0.4-1.3,0l-2.2,2.3c-0.4,0.4-0.4,1,0,1.3C7.7,43.9,8.2,43.9,8.6,43.5z M48.9,24.6h-3.7c-0.5,0-0.9,0.399-0.9,0.899
			s0.4,0.9,0.9,0.9h3.7c0.5,0,0.899-0.4,0.899-0.9C49.9,25,49.4,24.6,48.9,24.6z M40.3,39.9c-0.4-0.4-0.9-0.4-1.3,0
			c-0.4,0.399-0.4,1,0,1.3l2.2,2.3c0.4,0.4,0.9,0.4,1.3,0c0.4-0.399,0.4-1,0-1.3L40.3,39.9z M5.5,25.5C5.5,25,5.1,24.6,4.6,24.6H0.9
			C0.4,24.6,0,25,0,25.5s0.4,0.9,0.9,0.9h3.7C5.1,26.5,5.5,26,5.5,25.5z M24.9,45.3c-0.5,0-0.9,0.4-0.9,0.9V50
			c0,0.5,0.4,0.9,0.9,0.9s0.9-0.4,0.9-0.9v-3.8C25.9,45.8,25.4,45.3,24.9,45.3z"/>
	</g>
</g>
</svg>
