<?xml version="1.0" encoding="utf-8"?>
<!-- Generator: Adobe Illustrator 16.0.0, SVG Export Plug-In . SVG Version: 6.00 Build 0)  -->
<!DOCTYPE svg PUBLIC "-//W3C//DTD SVG 1.1//EN" "http://www.w3.org/Graphics/SVG/1.1/DTD/svg11.dtd">
<svg version="1.1" id="Слой_1" xmlns="http://www.w3.org/2000/svg" xmlns:xlink="http://www.w3.org/1999/xlink" x="0px" y="0px"
	 width="100.9px" height="75.7px" viewBox="0 0 100.9 75.7" enable-background="new 0 0 100.9 75.7" xml:space="preserve">
<g>
	<g>
		<path fill="#FFFFFF" d="M61.2,3.5c0.3,0,0.6-0.3,0.6-0.6V0.6c0-0.3-0.3-0.6-0.6-0.6s-0.6,0.3-0.6,0.6v2.3
			C60.6,3.2,60.9,3.5,61.2,3.5z M71.1,24.7c-0.2-0.2-0.601-0.2-0.801,0c-0.199,0.2-0.199,0.6,0,0.8l1.4,1.4c0.2,0.2,0.6,0.2,0.8,0
			c0.2-0.2,0.2-0.6,0-0.8L71.1,24.7z M74.2,16.4h2.4c0.3,0,0.6-0.3,0.6-0.6c0-0.3-0.3-0.6-0.6-0.6h-2.4c-0.3,0-0.6,0.3-0.6,0.6
			C73.6,16.1,73.9,16.4,74.2,16.4z M71.1,6.9L72.5,5.5c0.2-0.2,0.2-0.6,0-0.8c-0.2-0.2-0.6-0.2-0.8,0L70.2,6c-0.2,0.2-0.2,0.6,0,0.8
			C70.5,7.1,70.9,7.1,71.1,6.9z M45.8,16.4h2.4c0.3,0,0.6-0.3,0.6-0.6c0-0.3-0.3-0.6-0.6-0.6h-2.4c-0.3,0-0.6,0.3-0.6,0.6
			C45.2,16.1,45.5,16.4,45.8,16.4z M61.2,26.3c5.9,0,10.7-4.7,10.7-10.5c0-5.8-4.8-10.5-10.7-10.5S50.5,10,50.5,15.8
			C50.5,21.6,55.3,26.3,61.2,26.3z M61.2,6.4c5.2,0,9.5,4.2,9.5,9.4c0,5.2-4.2,9.4-9.5,9.4c-5.2,0-9.5-4.2-9.5-9.4
			C51.7,10.6,56,6.4,61.2,6.4z M50.7,27l1.4-1.4c0.199-0.2,0.199-0.6,0-0.8c-0.2-0.2-0.601-0.2-0.801,0L49.9,26.2
			c-0.2,0.2-0.2,0.6,0,0.8S50.5,27.2,50.7,27z M51.3,6.9c0.2,0.2,0.601,0.2,0.801,0c0.199-0.2,0.199-0.6,0-0.8l-1.4-1.4
			c-0.2-0.2-0.6-0.2-0.8,0c-0.2,0.2-0.2,0.6,0,0.8L51.3,6.9z M60.6,28.7V31c0,0.3,0.3,0.6,0.6,0.6s0.6-0.3,0.6-0.6v-2.3
			c0-0.3-0.3-0.6-0.6-0.6S60.6,28.4,60.6,28.7z M91.7,44.299c0.1-0.699,0.2-1.299,0.2-2C91.9,34.7,85.8,28.5,78.2,28.5
			c-6.1,0-11.4,4.1-13.1,9.8c-1-0.4-2-0.6-3-0.6c-2.7,0-5.101,1.5-6.5,3.7c-1-4.3-4.5-7.5-8.9-8c0.1-0.7,0.2-1.3,0.2-2
			c0-7.6-6.101-13.8-13.7-13.8c-6.1,0-11.4,4.1-13.1,9.8c-1-0.4-2-0.6-3-0.6c-4.2,0-7.601,3.5-7.601,7.7c0,0.1,0,0.3,0,0.4
			c-5.2,0-9.399,4.3-9.399,9.7c0,5,3.699,9.1,8.399,9.6v0.1h12.8C21.2,54.9,21.1,55.5,21.1,56.2c0,0.1,0,0.301,0,0.4
			c-5.2,0-9.4,4.3-9.4,9.699c0,5,3.7,9.101,8.4,9.601V76H57.3h1V75.9c5.2-0.5,9.301-5,9.301-10.399c0-0.101,0-0.101,0-0.201H90.8h1
			V65c5.2-0.5,9.301-5,9.301-10.4C100.9,49.299,96.9,44.9,91.7,44.299z M55.3,47.799C56,49.4,56.5,51.1,56.5,53
			c0,0.899-0.1,1.799-0.3,2.699l-0.3,1.2h1.2c3.899,0,7.199,2.7,8.1,6.399H54.8h-0.3c-4.1,0-7.399-3.5-7.399-7.699
			c0-0.5,0.1-1,0.1-1.5c3.6-0.6,6.5-3,7.9-6.2C55.1,47.7,55.2,47.7,55.3,47.799z M45.6,52.2L45.6,52.2H24.3c1-1.199,2.601-2,4.301-2
			c1.1,0,2.199,0.301,3.1,1L32.9,52l0.3-1.4C34.3,45,39.1,41,44.7,41c3.6,0,6.9,1.699,9,4.299c0,0.201-0.1,0.301-0.1,0.5
			C49.9,46.1,46.8,48.7,45.6,52.2z M52.8,47.9c-1.1,1.899-2.8,3.3-4.899,3.899C48.9,49.9,50.7,48.4,52.8,47.9z M9.7,52.2H9.4
			C5.3,52.2,2,48.7,2,44.5C2,40.2,5.3,36.8,9.5,36.8c0.3,0,0.601,0,1,0.1l1.4,0.2l-0.3-1.3C11.5,35.4,11.5,35,11.5,34.5
			c0-3.2,2.5-5.8,5.7-5.8c1.1,0,2.2,0.3,3.1,1l1.2,0.8l0.3-1.4c1.101-5.5,5.9-9.5,11.5-9.5c6.5,0,11.7,5.3,11.7,11.9
			c0,0.9-0.1,1.8-0.3,2.7l-0.3,1.2h1.2c4.3,0,7.8,3.3,8.3,7.5c-2.4-2.2-5.601-3.601-9.101-3.601c-6.1,0-11.399,4.101-13.1,9.801
			c-1-0.4-2-0.6-3-0.6c-2.8,0-5.3,1.6-6.6,3.899L9.7,52.2z M57.1,73.799H21.2h-0.3c-4.101,0-7.4-3.5-7.4-7.699
			c0-4.301,3.3-7.7,7.5-7.7c0.3,0,0.601,0,1,0.101l1.4,0.199L23,57.2c-0.1-0.4-0.1-0.8-0.1-1.3c0-0.7,0.1-1.3,0.3-1.899h22
			c-0.1,0.399-0.1,0.899-0.1,1.299c0,5,3.699,9.101,8.399,9.601V65h12c0,0.1,0,0.1,0,0.199C65.5,69.9,61.7,73.799,57.1,73.799z
			 M90.6,63.2H67.1c-0.9-4.4-4.5-7.699-8.9-8.199c0.1-0.701,0.2-1.301,0.2-2c0-2.601-0.7-5-2-7.101c0-0.101,0-0.3,0-0.399
			c0-3.201,2.5-5.801,5.7-5.801c1.1,0,2.199,0.301,3.1,1l1.2,0.801l0.3-1.4c1.1-5.5,5.9-9.5,11.5-9.5c6.5,0,11.7,5.3,11.7,11.9
			c0,0.899-0.101,1.799-0.3,2.699L89.3,46.4h1.2c4.601,0,8.4,3.8,8.4,8.5C99,59.299,95.2,63.1,90.6,63.2z"/>
	</g>
</g>
</svg>
