<?xml version="1.0" encoding="utf-8"?>
<!-- Generator: Adobe Illustrator 18.0.0, SVG Export Plug-In . SVG Version: 6.00 Build 0)  -->
<!DOCTYPE svg PUBLIC "-//W3C//DTD SVG 1.1//EN" "http://www.w3.org/Graphics/SVG/1.1/DTD/svg11.dtd">
<svg version="1.1" id="Слой_1" xmlns="http://www.w3.org/2000/svg" xmlns:xlink="http://www.w3.org/1999/xlink" x="0px" y="0px"
	 width="67.9px" height="48.5px" viewBox="0 0 67.9 48.5" enable-background="new 0 0 67.9 48.5" xml:space="preserve">
<path fill-rule="evenodd" clip-rule="evenodd" fill="#F2D03B" d="M67.9,46.3C67.9,46.3,67.9,46.3,67.9,46.3c0,1.2-0.9,2.1-2.1,2.1
	H50c1.2-0.3,2.1-1.3,2.1-2.6c0,0,0,0,0,0h0c0,0,0-9.7-7-13.2c-3-1.5-3.2-1.2-4.7-1.6l0-4.2c0,0-1.6-1.3-2.1-5.2
	c-1,0.3-1.4-1.2-1.4-2.2c-0.1-0.9-0.6-3.8,0.7-3.6c-0.3-1.9-0.4-3.7-0.3-4.6c0.3-3.3,3.4-6.7,8.2-6.9c5.6,0.2,7.9,3.6,8.2,6.9
	c0.1,0.9-0.1,2.7-0.4,4.6c1.3-0.3,0.7,2.6,0.6,3.6c-0.1,1-0.4,2.5-1.4,2.2c-0.5,4-2.1,5.2-2.1,5.2l0,4.2c0,0,1,0.6,5.4,2.4
	c4.4,1.8,3,0.5,6.6,2.3C67.9,38.6,67.9,46.3,67.9,46.3L67.9,46.3z M36.2,32c4.8,2,3.3,0.5,7.2,2.5c6.2,3.1,6.2,11.7,6.2,11.7h0
	c0,0,0,0,0,0c0,1.3-1,2.3-2.3,2.3H2.3C1,48.5,0,47.4,0,46.1c0,0,0,0,0,0h0c0,0,0-8.5,6.2-11.7c3.9-2,2.4-0.4,7.2-2.4
	c4.8-2,5.9-2.7,5.9-2.7l0-4.6c0,0-1.8-1.4-2.4-5.7c-1.1,0.3-1.5-1.3-1.6-2.4c-0.1-1-0.7-4.2,0.7-3.9c-0.3-2.1-0.5-4.1-0.4-5.1
	c0.3-3.6,3.8-7.3,9-7.6c6.2,0.3,8.6,4,9,7.6c0.1,1-0.1,2.9-0.4,5.1c1.4-0.3,0.8,2.9,0.7,3.9c-0.1,1.1-0.4,2.7-1.6,2.4
	c-0.6,4.4-2.4,5.7-2.4,5.7l0,4.6C30.2,29.3,31.4,30,36.2,32z"/>
</svg>
