<?xml version="1.0" encoding="utf-8"?>
<!-- Generator: Adobe Illustrator 18.0.0, SVG Export Plug-In . SVG Version: 6.00 Build 0)  -->
<!DOCTYPE svg PUBLIC "-//W3C//DTD SVG 1.1//EN" "http://www.w3.org/Graphics/SVG/1.1/DTD/svg11.dtd">
<svg version="1.1" id="Слой_1" xmlns="http://www.w3.org/2000/svg" xmlns:xlink="http://www.w3.org/1999/xlink" x="0px" y="0px"
	 width="35px" height="35px" viewBox="0 0 35 35" enable-background="new 0 0 35 35" xml:space="preserve">
<g>
	<path fill-rule="evenodd" clip-rule="evenodd" fill="#FFFFFF" d="M17.5,0C7.8,0,0,7.8,0,17.5C0,27.1,7.8,35,17.5,35
		C27.2,35,35,27.1,35,17.5C35,7.8,27.2,0,17.5,0z M29.8,27.7c-1.6-0.7-5.4-2-7.7-2.7c-0.2-0.1-0.2-0.1-0.2-0.9c0-0.7,0.3-1.4,0.6-2
		c0.3-0.6,0.7-1.7,0.8-2.7c0.4-0.4,0.8-1.2,1.1-2.8c0.3-1.4,0.1-1.9,0-2.3c0,0,0-0.1-0.1-0.1c-0.1-0.3,0-2,0.3-3.3
		c0.2-0.9,0-2.8-1.3-4.3c-0.8-1-2.2-2.2-4.9-2.4l-1.5,0c-2.6,0.2-4.1,1.4-4.9,2.4c-1.2,1.6-1.4,3.4-1.3,4.3c0.2,1.3,0.3,2.9,0.3,3.3
		c0,0.1,0,0.1-0.1,0.2c-0.2,0.5-0.3,1,0,2.3c0.3,1.5,0.8,2.4,1.1,2.8c0.1,1,0.5,2,0.8,2.7c0.2,0.5,0.3,1.1,0.3,2
		c0,0.8,0,0.8-0.2,0.9c-2.4,0.7-6.3,2.1-7.7,2.7C2.9,25,1.5,21.4,1.5,17.5c0-8.8,7.2-16,16-16c8.8,0,16,7.2,16,16
		C33.5,21.4,32.1,24.9,29.8,27.7z"/>
</g>
</svg>
