<?xml version="1.0" encoding="utf-8"?>
<!-- Generator: Adobe Illustrator 18.0.0, SVG Export Plug-In . SVG Version: 6.00 Build 0)  -->
<!DOCTYPE svg PUBLIC "-//W3C//DTD SVG 1.1//EN" "http://www.w3.org/Graphics/SVG/1.1/DTD/svg11.dtd">
<svg version="1.1" id="Слой_1" xmlns="http://www.w3.org/2000/svg" xmlns:xlink="http://www.w3.org/1999/xlink" x="0px" y="0px"
	 width="50.5px" height="48.5px" viewBox="0 0 50.5 48.5" enable-background="new 0 0 50.5 48.5" xml:space="preserve">
<path fill-rule="evenodd" clip-rule="evenodd" fill="#F2D03B" d="M50.5,25.4c0,1.3-1.1,2.4-2.4,2.4c-0.6,0-1.2-0.2-1.6-0.6l0,0
	L25.3,5.8v0l-0.1-0.1v0L4,27.1l0,0c-0.4,0.4-1,0.7-1.7,0.7c-1.3,0-2.4-1.1-2.4-2.4c0-0.7,0.3-1.3,0.7-1.7l22.8-23
	C24,0.3,24.6,0,25.2,0l0,0l0,0c0,0,0,0,0,0c0,0,0.1,0,0.1,0c0,0,0,0,0,0c0,0,0.1,0,0.1,0c0,0,0,0,0,0c0.6,0.1,1.1,0.3,1.5,0.7l0,0
	l9.3,9.4V7.9c0-1.3,1.1-2.4,2.4-2.4c1.3,0,2.4,1.1,2.4,2.4v7l8.8,8.9l0,0C50.2,24.2,50.5,24.8,50.5,25.4z M45.7,29.4v7.2v3.2v6.4
	c0,1.3-1.1,2.4-2.4,2.4h-4.7V29.4h-9.5v19.1H7.1c-1.3,0-2.4-1.1-2.4-2.4v-6.4v-3.2v-7.2L25.2,8.7L45.7,29.4z M21.3,29.4h-9.5v9.5
	h9.5V29.4z"/>
</svg>
