<?xml version="1.0" encoding="utf-8"?>
<!-- Generator: Adobe Illustrator 18.0.0, SVG Export Plug-In . SVG Version: 6.00 Build 0)  -->
<!DOCTYPE svg PUBLIC "-//W3C//DTD SVG 1.1//EN" "http://www.w3.org/Graphics/SVG/1.1/DTD/svg11.dtd">
<svg version="1.1" id="Слой_1" xmlns="http://www.w3.org/2000/svg" xmlns:xlink="http://www.w3.org/1999/xlink" x="0px" y="0px"
	 width="435.3px" height="58.2px" viewBox="0 0 435.3 58.2" enable-background="new 0 0 435.3 58.2" xml:space="preserve">
<g>
	<path fill="#FFFFFF" d="M44,36.3l-6.1,14.2H18.2L50.8,5.7V1.3H1.8c0,2.7,0.3,5.8,0.8,9.3c0.5,3.6,1.2,6.9,2,10.1h3.9l5-13.1h18.9
		L0,52.5v4.3h50.8c0.2-3.3-0.1-6.7-0.7-10.4c-0.6-3.7-1.3-7.1-2.2-10.1H44z"/>
	<path fill="#FFFFFF" d="M58.7,40.8c1.2,3.6,3.1,6.7,5.6,9.2c2.5,2.6,5.7,4.6,9.4,6c3.8,1.4,8.3,2.2,13.4,2.2c4.7,0,8.9-0.7,12.7-2
		c3.8-1.3,6.9-3.3,9.6-5.8c2.6-2.5,4.6-5.6,6-9.2c1.4-3.6,2-7.6,2-12.2c0-4.2-0.6-8.1-1.7-11.7c-1.1-3.6-2.9-6.7-5.4-9.2
		c-2.5-2.6-5.6-4.6-9.4-6C97,0.7,92.5,0,87.2,0c-4.7,0-8.9,0.7-12.6,2c-3.7,1.3-6.9,3.3-9.5,5.8c-2.6,2.5-4.6,5.6-6,9.2
		c-1.4,3.6-2.1,7.6-2.1,12.2C56.9,33.3,57.5,37.2,58.7,40.8z M75.3,18.6c0.5-2.9,1.2-5.1,2.2-6.9c1-1.7,2.2-3,3.6-3.8
		c1.4-0.8,3.1-1.2,5.1-1.2c2.7,0,4.9,0.5,6.6,1.6C94.6,9.5,96,11,97,12.9c1,1.9,1.7,4.3,2.2,7c0.4,2.7,0.6,5.8,0.6,9.2
		c0,4.1-0.2,7.6-0.7,10.5c-0.5,2.9-1.2,5.1-2.2,6.9c-1,1.7-2.2,3-3.5,3.8c-1.4,0.8-2.9,1.2-4.6,1.2c-2.9,0-5.2-0.5-7.1-1.6
		c-1.8-1.1-3.3-2.6-4.3-4.5c-1.1-1.9-1.8-4.3-2.2-7.1c-0.4-2.8-0.6-5.8-0.6-9.2C74.5,25,74.8,21.5,75.3,18.6z"/>
	<path fill="#FFFFFF" d="M126.3,40.8c1.2,3.6,3.1,6.7,5.6,9.2c2.5,2.6,5.7,4.6,9.4,6c3.8,1.4,8.3,2.2,13.4,2.2c4.7,0,8.9-0.7,12.7-2
		c3.8-1.3,6.9-3.3,9.6-5.8c2.6-2.5,4.6-5.6,6-9.2c1.4-3.6,2-7.6,2-12.2c0-4.2-0.6-8.1-1.7-11.7c-1.1-3.6-2.9-6.7-5.4-9.2
		c-2.5-2.6-5.6-4.6-9.4-6c-3.8-1.4-8.4-2.2-13.7-2.2c-4.7,0-8.9,0.7-12.6,2c-3.7,1.3-6.9,3.3-9.5,5.8c-2.6,2.5-4.6,5.6-6,9.2
		c-1.4,3.6-2.1,7.6-2.1,12.2C124.5,33.3,125.1,37.2,126.3,40.8z M142.9,18.6c0.5-2.9,1.2-5.1,2.2-6.9c1-1.7,2.2-3,3.6-3.8
		c1.4-0.8,3.1-1.2,5.1-1.2c2.7,0,4.9,0.5,6.6,1.6c1.7,1.1,3.1,2.6,4.2,4.5c1,1.9,1.7,4.3,2.2,7c0.4,2.7,0.6,5.8,0.6,9.2
		c0,4.1-0.2,7.6-0.7,10.5c-0.5,2.9-1.2,5.1-2.2,6.9c-1,1.7-2.2,3-3.5,3.8c-1.4,0.8-2.9,1.2-4.6,1.2c-2.9,0-5.2-0.5-7.1-1.6
		c-1.8-1.1-3.3-2.6-4.3-4.5c-1.1-1.9-1.8-4.3-2.2-7.1c-0.4-2.8-0.6-5.8-0.6-9.2C142.1,25,142.4,21.5,142.9,18.6z"/>
	<path fill="#FFFFFF" d="M256.1,52.7c-0.9-0.5-1.9-1-2.9-1.4c-1-0.4-2.2-0.9-3.5-1.2V19.9c0.8-3.3,1.9-6,3.5-8c1.6-2,3.7-3,6.4-3
		c3.6,0,6,1.4,7.1,4.1c1.1,2.7,1.6,7,1.6,12.8V50c-2,0.7-3.9,1.6-5.7,2.7v4.2h29.6v-4.2c-2.4-1.3-4.9-2.2-7.5-2.7V23.6
		c0-4.7-0.4-8.5-1.1-11.6c-0.8-3-1.9-5.5-3.4-7.2c-1.5-1.8-3.3-3-5.5-3.7c-2.2-0.7-4.6-1.1-7.5-1.1c-4.6,0-8.4,1.3-11.6,3.8
		c-3.2,2.5-5.5,5.8-6.8,9.9c-0.5-2.8-1.2-5.1-2.3-6.9c-1.1-1.8-2.3-3.2-3.8-4.2c-1.5-1-3.1-1.7-4.8-2.1c-1.7-0.4-3.5-0.6-5.3-0.6
		c-4.3,0-8,1.2-11.1,3.7s-5.2,5.4-6.4,8.9h-0.1V0h-3.9c-1.2,0.1-2.7,0.3-4.5,0.6c-1.8,0.2-3.6,0.5-5.5,0.8c-1.9,0.3-3.7,0.7-5.5,1.2
		c-1.8,0.4-3.3,0.9-4.5,1.4v4.2l7.5,0.9V50c-1.4,0.4-2.7,0.8-4,1.2c-1.3,0.4-2.5,0.9-3.5,1.5v4.2h29.6v-4.2
		c-1.7-1.2-3.6-2.1-5.7-2.7V18.8c0.8-3,2.1-5.4,3.9-7.2c1.8-1.8,3.9-2.7,6.3-2.7c1.7,0,3,0.4,4.1,1.1c1.1,0.7,1.9,1.8,2.5,3.3
		c0.6,1.5,1,3.5,1.2,5.8c0.2,2.4,0.3,5.3,0.3,8.7V50c-1.1,0.4-2.2,0.8-3.1,1.3c-0.9,0.5-1.8,0.9-2.6,1.4v4.2h28.4V52.7z"/>
	<path fill-rule="evenodd" clip-rule="evenodd" fill="#FFDE00" d="M407.3,0.9c15.5,0,28,12.3,28,27.4c0,15.1-12.5,27.4-28,27.4
		c-15.5,0-28-12.3-28-27.4C379.3,13.1,391.9,0.9,407.3,0.9z"/>
	<path fill-rule="evenodd" clip-rule="evenodd" fill="#FF6060" d="M343.2,0.9c15.5,0,28,12.3,28,27.4c0,15.1-12.5,27.4-28,27.4
		c-15.5,0-28-12.3-28-27.4C315.1,13.1,327.7,0.9,343.2,0.9z"/>
</g>
</svg>
